<svg width="47" height="47" viewBox="0 0 47 47" fill="none" xmlns="http://www.w3.org/2000/svg">
<g id="Chart Person / undefined / Glyph: undefined">
<path id="Vector" d="M24.7034 6.09442C24.7034 5.3049 24.0633 4.66486 23.2738 4.66486C22.4843 4.66486 21.8442 5.3049 21.8442 6.09442V6.57094H10.8842C7.46294 6.57094 4.68945 9.34443 4.68945 12.7657V30.8736C4.68945 34.2948 7.46294 37.0683 10.8842 37.0683H15.4559L12.6442 40.4419C12.1387 41.0484 12.2206 41.9498 12.8271 42.4553C13.4336 42.9608 14.335 42.8791 14.8405 42.2725L19.1779 37.0683H25.864C26.2031 35.8963 26.9373 34.8922 27.9126 34.2092H10.8842C9.042 34.2092 7.54858 32.7158 7.54858 30.8736V12.7657C7.54858 10.9235 9.042 9.43007 10.8842 9.43007H36.6164C38.4586 9.43007 39.9521 10.9235 39.9521 12.7657V23.0153C41.6803 24.2209 42.8112 26.2238 42.8112 28.4909V12.7657C42.8112 9.34443 40.0377 6.57094 36.6164 6.57094H24.7034V6.09442ZM12.3138 15.6249C12.3138 14.8353 12.9538 14.1953 13.7434 14.1953H21.3677C22.1572 14.1953 22.7973 14.8353 22.7973 15.6249C22.7973 16.4144 22.1572 17.0544 21.3677 17.0544H13.7434C12.9538 17.0544 12.3138 16.4144 12.3138 15.6249ZM13.7434 19.9136C12.9538 19.9136 12.3138 20.5536 12.3138 21.3431C12.3138 22.1326 12.9538 22.7727 13.7434 22.7727H26.1329C26.9224 22.7727 27.5625 22.1326 27.5625 21.3431C27.5625 20.5536 26.9224 19.9136 26.1329 19.9136H13.7434ZM12.3138 27.0614C12.3138 26.2719 12.9538 25.6318 13.7434 25.6318H24.2268C25.0163 25.6318 25.6564 26.2719 25.6564 27.0614C25.6564 27.8509 25.0163 28.4909 24.2268 28.4909H13.7434C12.9538 28.4909 12.3138 27.8509 12.3138 27.0614ZM40.9051 28.4909C40.9051 31.1227 38.7716 33.2562 36.1399 33.2562C33.5082 33.2562 31.3747 31.1227 31.3747 28.4909C31.3747 25.8592 33.5082 23.7257 36.1399 23.7257C38.7716 23.7257 40.9051 25.8592 40.9051 28.4909ZM44.7173 38.7362C44.7173 41.703 42.2666 44.6927 36.1399 44.6927C30.0132 44.6927 27.5625 41.7142 27.5625 38.7362V38.5398C27.5625 36.6736 29.0754 35.1623 30.9414 35.1623H41.3384C43.2044 35.1623 44.7173 36.6738 44.7173 38.5398V38.7362Z" fill="#349416"/>
</g>
</svg>
