<svg width="48" height="53" viewBox="0 0 48 53" fill="none" xmlns="http://www.w3.org/2000/svg">
<g id="Logo 1" clip-path="url(#clip0_65_1097)">
<path id="Vector" d="M33.6082 4.79416L13.895 1.98211C6.22102 0.88742 0 6.284 0 14.0357V33.188C0 40.9397 6.22102 48.1111 13.895 49.2058L33.6082 52.0179C41.2822 53.1125 47.5032 47.716 47.5032 39.9643V20.812C47.5032 13.0603 41.2822 5.88885 33.6082 4.79416Z" fill="#4EE0F4"/>
<path id="Vector_2" d="M33.8563 2.64496L13.9931 1.09318C6.26491 0.489433 0 6.284 0 14.0357V33.188C0 40.9397 6.26491 47.7131 13.9931 48.3169L33.8563 49.8687C41.5845 50.4724 47.8494 44.6778 47.8494 36.9261V17.7738C47.8494 10.0221 41.5845 3.24871 33.8563 2.64496Z" fill="#F44E77"/>
<path id="Vector_3" d="M33.9643 0H14.0357C6.284 0 0 6.284 0 14.0357V33.188C0 40.9397 6.284 47.2237 14.0357 47.2237H33.9643C41.716 47.2237 48 40.9397 48 33.188V14.0357C48 6.284 41.716 0 33.9643 0Z" fill="#6F42CE"/>
<g id="Group" filter="url(#filter0_dd_65_1097)">
<path id="Vector_4" d="M12.96 14.416C12.96 12.192 14.7629 10.3892 16.9868 10.3892H24.1492C26.6789 10.3892 28.906 10.9307 30.8303 12.0137C32.7762 13.0715 34.2789 14.5952 35.3384 16.5849C36.4195 18.5746 36.96 20.9169 36.96 23.6118C36.96 26.3067 36.4195 28.649 35.3384 30.6387C34.2789 32.6284 32.7762 34.1647 30.8303 35.2477C28.906 36.3056 26.6789 36.8345 24.1492 36.8345H16.9868C14.7629 36.8345 12.96 35.0316 12.96 32.8076V14.416ZM23.8249 29.8831C25.4681 29.8831 26.7762 29.3416 27.7492 28.2586C28.7438 27.1504 29.2411 25.6015 29.2411 23.6118C29.2411 21.6221 28.7438 20.0858 27.7492 19.0028C26.7762 17.8946 25.4681 17.3405 23.8249 17.3405H21.4101C20.9705 17.3405 20.6141 17.6969 20.6141 18.1366V29.0871C20.6141 29.5267 20.9705 29.8831 21.4101 29.8831H23.8249Z" fill="white"/>
</g>
</g>
<defs>
<filter id="filter0_dd_65_1097" x="12.5619" y="9.79212" width="24.7961" height="27.6394" filterUnits="userSpaceOnUse" color-interpolation-filters="sRGB">
<feFlood flood-opacity="0" result="BackgroundImageFix"/>
<feColorMatrix in="SourceAlpha" type="matrix" values="0 0 0 0 0 0 0 0 0 0 0 0 0 0 0 0 0 0 127 0" result="hardAlpha"/>
<feOffset dy="0.199014"/>
<feGaussianBlur stdDeviation="0.199014"/>
<feColorMatrix type="matrix" values="0 0 0 0 0 0 0 0 0 0 0 0 0 0 0 0 0 0 0.1 0"/>
<feBlend mode="normal" in2="BackgroundImageFix" result="effect1_dropShadow_65_1097"/>
<feColorMatrix in="SourceAlpha" type="matrix" values="0 0 0 0 0 0 0 0 0 0 0 0 0 0 0 0 0 0 127 0" result="hardAlpha"/>
<feOffset dy="-0.199014"/>
<feGaussianBlur stdDeviation="0.199014"/>
<feColorMatrix type="matrix" values="0 0 0 0 0 0 0 0 0 0 0 0 0 0 0 0 0 0 0.05 0"/>
<feBlend mode="normal" in2="effect1_dropShadow_65_1097" result="effect2_dropShadow_65_1097"/>
<feBlend mode="normal" in="SourceGraphic" in2="effect2_dropShadow_65_1097" result="shape"/>
</filter>
<clipPath id="clip0_65_1097">
<rect width="48" height="53" fill="white"/>
</clipPath>
</defs>
</svg>
