<svg width="46" height="46" viewBox="0 0 46 46" fill="none" xmlns="http://www.w3.org/2000/svg">
<g id="Fast Forward / undefined / Glyph: undefined">
<path id="Vector" d="M22.3139 10.9355C22.3139 8.54064 25.119 7.24449 26.9429 8.79668L40.8169 20.6045C42.3543 21.9129 42.3543 24.2868 40.8169 25.5952L26.9427 37.4025C25.119 38.9547 22.3139 37.6584 22.3139 35.2636V27.7989L11.0273 37.4041C9.20349 38.9562 6.39844 37.6601 6.39844 35.2651V10.9371C6.39844 8.54222 9.20355 7.24606 11.0274 8.79825L22.3139 18.4038V10.9355ZM22.3139 22.0919L9.20705 10.9371V35.2651L22.3139 24.111V22.0919ZM38.9967 22.7434L25.1225 10.9355V35.2636L38.9967 23.4564C39.2163 23.2695 39.2163 22.9302 38.9967 22.7434Z" fill="#F69A74"/>
</g>
</svg>
