<svg width="51" height="51" viewBox="0 0 51 51" fill="none" xmlns="http://www.w3.org/2000/svg">
<g id="Folder Multiple / undefined / Glyph: undefined">
<path id="Vector" d="M11.1563 9.5625C8.51563 9.5625 6.375 11.7031 6.375 14.3438V15.9375H16.211C16.6336 15.9375 17.039 15.7696 17.3379 15.4707L20.0586 12.75L17.3379 10.0293C17.039 9.73042 16.6336 9.5625 16.211 9.5625H11.1563ZM3.1875 14.1563C3.1875 14.1053 3.18989 14.055 3.19454 14.0053C3.3719 9.76124 6.86862 6.375 11.1563 6.375H16.211C17.479 6.375 18.6951 6.87875 19.5918 7.7754L22.9727 11.1563H33.4688C37.8697 11.1563 41.4375 14.724 41.4375 19.125V30.2813C41.4375 34.6822 37.8697 38.25 33.4688 38.25H11.1563C6.75524 38.25 3.1875 34.6822 3.1875 30.2813V14.1563ZM22.9727 14.3438L19.5918 17.7246C18.6951 18.6212 17.479 19.125 16.211 19.125H6.375V30.2813C6.375 32.9218 8.51563 35.0625 11.1563 35.0625H33.4688C36.1093 35.0625 38.25 32.9218 38.25 30.2813V19.125C38.25 16.4844 36.1093 14.3438 33.4688 14.3438H22.9727ZM44.6256 19.125C46.5611 20.5788 47.8131 22.8935 47.8131 25.5006V30.2818C47.8131 38.2038 41.3913 44.6256 33.4694 44.6256H17.5318C14.9247 44.6256 12.6101 43.3736 11.1563 41.4381H33.4694C39.6308 41.4381 44.6256 36.4433 44.6256 30.2818V19.125Z" fill="#2F4798"/>
</g>
</svg>
