<svg width="46" height="47" viewBox="0 0 46 47" fill="none" xmlns="http://www.w3.org/2000/svg">
<g id="Chart Multiple / undefined / Glyph: undefined">
<path id="Vector" d="M24.8224 23.2492H37.621C38.2697 22.5876 39.1097 22.1143 40.0513 21.9189C39.6057 12.3147 31.6779 4.66486 21.9633 4.66486C11.9626 4.66486 3.85547 12.772 3.85547 22.7727C3.85547 32.4537 11.4526 40.3603 21.0103 40.8559V38.0214V37.992C13.0326 37.5003 6.7146 30.8743 6.7146 22.7727C6.7146 14.5105 13.2856 7.78304 21.4868 7.53129V19.9136C21.4868 21.7558 22.9802 23.2492 24.8224 23.2492ZM24.8224 20.3901C24.5592 20.3901 24.3459 20.1768 24.3459 19.9136V7.70903C30.8596 8.73107 36.0049 13.8765 37.0269 20.3901H24.8224ZM41.0242 23.7257C39.4452 23.7257 38.165 25.0059 38.165 26.5849V41.8336C38.165 43.4126 39.4452 44.6927 41.0242 44.6927C42.6032 44.6927 43.8833 43.4126 43.8833 41.8336V26.5849C43.8833 25.0059 42.6032 23.7257 41.0242 23.7257ZM25.7755 35.1623C24.1965 35.1623 22.9163 36.4424 22.9163 38.0214V41.8336C22.9163 43.4126 24.1965 44.6927 25.7755 44.6927C27.3545 44.6927 28.6346 43.4126 28.6346 41.8336V38.0214C28.6346 36.4424 27.3545 35.1623 25.7755 35.1623ZM30.5407 32.3031C30.5407 30.7241 31.8208 29.444 33.3998 29.444C34.9788 29.444 36.259 30.7241 36.259 32.3031V41.8336C36.259 43.4126 34.9788 44.6927 33.3998 44.6927C31.8208 44.6927 30.5407 43.4126 30.5407 41.8336V32.3031Z" fill="#6136BD"/>
</g>
</svg>
